<svg width="12" height="12" viewBox="0 0 12 12" fill="none" xmlns="http://www.w3.org/2000/svg">
<path d="M2.4 0H0V2.4H2.4V0Z" fill="#B5B5C6"/>
<path d="M7.2 0.120278C6.83052 0.045143 6.45479 0.00487352 6.07778 0H3.9V2.4H6.03333C6.74535 2.4 7.44137 2.61114 8.03339 3.00671C8.6254 3.40228 9.08682 3.96453 9.3593 4.62234C9.63177 5.28015 9.70307 6.00399 9.56416 6.70232C9.42525 7.40066 9.08239 8.04212 8.57892 8.54558C8.07545 9.04905 7.43399 9.39192 6.73566 9.53083C6.03733 9.66973 5.31349 9.59844 4.65567 9.32597C3.99786 9.05349 3.43562 8.59207 3.04004 8.00005C2.64447 7.40804 2.43333 6.71201 2.43333 6V3.9H0.0333335V6C0.0330419 6.41439 0.0755829 6.82769 0.160278 7.23333C0.723889 9.93111 3.09944 11.9633 5.95556 12H6.07778C9.35556 11.9583 12 9.28806 12 6C12 3.09722 9.93861 0.676111 7.2 0.120278Z" fill="#B5B5C6"/>
<path d="M5.68843 8.09404C5.35893 8.04488 5.04568 7.91862 4.77417 7.72556C4.49855 7.5301 4.27382 7.2714 4.11882 6.97116C3.96381 6.67092 3.88306 6.33789 3.88334 6V3.88389H6C6.33316 3.88376 6.66164 3.96228 6.95873 4.11305C7.25581 4.26382 7.51311 4.48259 7.7097 4.75156C7.90629 5.02054 8.03661 5.33212 8.09006 5.66096C8.14351 5.9898 8.11858 6.32661 8.01731 6.644C7.91603 6.96139 7.74127 7.25039 7.50723 7.48749C7.27319 7.7246 6.98649 7.90311 6.67045 8.00851C6.3544 8.1139 6.01794 8.14321 5.68843 8.09404Z" fill="#B5B5C6"/>
</svg>
