<svg width="68" height="77" viewBox="0 0 68 77" fill="none" xmlns="http://www.w3.org/2000/svg">
<path d="M31.1102 1.27864C32.8985 0.240452 35.1014 0.240453 36.8897 1.27864L64.6081 17.3705C66.3967 18.4088 67.4999 20.3288 67.4999 22.4082V54.5918C67.4999 56.6712 66.3967 58.5912 64.6081 59.6295L36.8897 75.7214C35.1014 76.7596 32.8985 76.7596 31.1102 75.7214L3.39182 59.6295C1.6032 58.5912 0.5 56.6712 0.5 54.5918V22.4082C0.5 20.3288 1.6032 18.4088 3.39182 17.3705L31.1102 1.27864Z" fill="#212130" stroke="#4C4C5C"/>
<mask id="mask0_5186_4565" style="mask-type:alpha" maskUnits="userSpaceOnUse" x="0" y="0" width="68" height="76">
<path d="M31.1067 1.26446C32.8968 0.24518 35.1033 0.245181 36.8935 1.26446L64.6118 17.0468C66.4012 18.0657 67.5 19.9461 67.5 21.9772V53.542C67.5 55.5732 66.4012 57.4535 64.6118 58.4724L36.8934 74.2548C35.1033 75.274 32.8968 75.274 31.1067 74.2548L3.3883 58.4724C1.5989 57.4535 0.500122 55.5732 0.500122 53.542V21.9772C0.500122 19.9461 1.5989 18.0657 3.3883 17.0468L31.1067 1.26446Z" fill="#212130" stroke="#67677B"/>
</mask>
<g mask="url(#mask0_5186_4565)">
<path d="M10.6729 60.0977L8.51906 87.6619C8.00931 94.1855 12.8703 99.8882 19.3764 100.399L40.7448 102.078C47.2509 102.589 52.9383 97.7152 53.4481 91.1916L55.602 63.6274C56.1117 57.1038 51.2507 51.4011 44.7447 50.89L23.3762 49.2112C16.8701 48.7001 11.1827 53.5742 10.6729 60.0977Z" fill="#4C4C5C" stroke="#212130" stroke-miterlimit="10"/>
<path d="M8.07374 103.896C8.70138 99.8517 9.43154 95.7045 10.2684 91.4208C11.1513 86.9127 11.3647 85.8722 12.3961 81.6935L12.4086 81.6746C5.68871 81.3767 -0.144171 79.1572 -1.02705 75.7694C-2.10032 71.6577 3.86645 64.6784 15.2163 61.5045C33.92 74.3009 51.2011 64.2505 51.2011 64.2505L68.7583 65.5889C71.9278 65.8238 72.5241 70.9298 73.4509 73.9799C73.6867 74.7755 73.7864 75.6054 73.7459 76.4343C73.7254 76.8577 73.6701 77.2787 73.5806 77.693C72.7752 81.3683 71.4885 80.9508 67.7436 80.6655C62.1966 82.2559 56.3448 82.4548 50.7031 81.2445C51.042 87.0805 51.4626 91.7166 51.5797 94.5654" fill="#4C4C5C"/>
<path d="M51.205 64.2505C51.205 64.2505 33.926 74.2925 15.2202 61.5045C16.82 60.2304 18.6756 59.318 20.6598 58.8298C23.7993 62.4708 28.2474 64.7191 33.0338 65.0842C37.8202 65.4493 42.5563 63.9015 46.2089 60.7787C48.1053 61.5596 49.8099 62.7442 51.205 64.2505Z" fill="#4C4C5C" stroke="#212130" stroke-miterlimit="10"/>
<path d="M33.0453 65.0894C28.26 64.7221 23.8132 62.4745 20.6724 58.836C22.123 58.4799 23.6205 58.3553 25.1098 58.4668L41.9096 59.7422C43.3983 59.8563 44.8597 60.2046 46.2404 60.7743C42.5864 63.8984 37.848 65.446 33.0599 65.079L33.0453 65.0894Z" fill="#4C4C5C" stroke="#212130" stroke-width="2" stroke-miterlimit="10"/>
<path d="M57.4583 42.0019C57.0922 46.8268 54.6632 53.5082 51.0041 56.6569L46.2717 60.7329L46.2214 60.7749C42.5683 63.8967 37.8324 65.4437 33.0464 65.0787C28.2604 64.7136 23.8124 62.466 20.6723 58.826L20.6283 58.7778L16.5654 54.0305C14.9942 52.195 13.8603 49.535 13.1678 46.7303C12.4934 44.0612 12.2337 41.3038 12.3979 38.5553C12.6828 36.1875 13.3262 33.8772 14.3059 31.704C18.8144 21.7689 28.7814 18.7691 29.5973 18.5405C31.888 17.8961 34.2637 17.6075 36.6415 17.6846C39.0034 17.968 41.3079 18.6132 43.4745 19.5977C44.2486 19.9502 53.6485 24.4226 56.6047 34.9303C57.2483 37.2299 57.5362 39.6148 57.4583 42.0019Z" fill="#4C4C5C" stroke="#212130" stroke-miterlimit="10"/>
<path d="M55.6404 41.0726C55.6718 39.3404 55.3707 37.6183 54.7533 36.0002C51.885 28.4314 43.211 25.0918 42.4976 24.817C40.4725 24.0744 38.3649 23.5813 36.2212 23.3485C34.0635 23.2542 31.9025 23.424 29.7858 23.8541C29.041 24.0072 19.9527 26.0001 15.9777 33.0486C15.1237 34.5539 14.5661 36.2097 14.3354 37.9259C14.0738 41.3726 15.4546 46.3904 18.3857 49.0672L22.1809 52.5222C25.1099 55.1969 29.2355 56.8898 33.6437 57.2254C38.0518 57.5632 42.3825 56.5164 45.686 54.3158L49.9582 51.4691C53.2575 49.2686 55.3789 44.5171 55.6404 41.0726Z" fill="#212130" stroke="#212130" stroke-miterlimit="10"/>
<path d="M46.2099 31.5864C45.4079 30.1536 52.1645 36.0672 51.8839 41.7165C51.6034 47.3658 47.8234 48.8154 47.8234 48.8154C47.8234 48.8154 53.024 43.7409 46.2099 31.5864Z" fill="#303043"/>
<path d="M-3.29321 84.1544C-1.81407 63.6152 15.2222 61.4985 15.2222 61.4985C33.9259 74.2949 51.207 64.2445 51.207 64.2445C51.207 64.2445 62.6468 63.2208 65.8164 76.1787C68.986 89.1366 65.3289 97.2026 65.3289 97.2026L43.874 95.4908L35.6184 82.3L48.9935 75.2012L52.8953 84.9789L55.7469 79.6715" stroke="#212130" stroke-miterlimit="10"/>
<path d="M8.1008 69.2852C8.9589 70.5128 9.40646 71.9818 9.37909 73.4807C9.35817 74.5086 9.00669 75.9393 7.82463 76.1533C7.3288 76.2435 7.5401 76.9924 8.03385 76.9127C9.46905 76.6504 10.0779 75.0394 10.1532 73.7471C10.2433 72.0211 9.75989 70.3139 8.77865 68.8929C8.49202 68.4733 7.81208 68.8719 8.1008 69.2894L8.1008 69.2852Z" fill="#212130"/>
<path d="M10.1027 72.9586C11.5823 72.7266 12.9861 72.1464 14.1991 71.2657C14.2869 71.2109 14.3503 71.1245 14.3764 71.0242C14.4025 70.9239 14.3892 70.8174 14.3393 70.7266C14.2861 70.637 14.1998 70.572 14.0992 70.5457C13.9986 70.5194 13.8916 70.5339 13.8016 70.586C12.6451 71.4277 11.3055 71.9814 9.89348 72.2013C9.79389 72.2298 9.70939 72.2962 9.65815 72.3864C9.6069 72.4767 9.59299 72.5834 9.61941 72.6838C9.64958 72.7829 9.71652 72.8667 9.80643 72.9178C9.89633 72.9689 10.0024 72.9835 10.1027 72.9586Z" fill="#212130"/>
</g>
</svg>
